<svg width="251" height="66" viewBox="0 0 251 66" fill="none" xmlns="http://www.w3.org/2000/svg">
<path d="M68 45.04V31.675H75.7698V45.04H73.3407V33.4075H70.4291V45.04H68Z" fill="white"/>
<path d="M77.6477 48.175V35.503H79.9104V36.229C80.1877 35.965 80.4928 35.756 80.8255 35.602C81.1583 35.437 81.5077 35.3545 81.8737 35.3545C82.3063 35.3545 82.6612 35.4535 82.9385 35.6515C83.2158 35.8495 83.4321 36.1135 83.5874 36.4435C83.7427 36.7625 83.848 37.109 83.9035 37.483C83.9701 37.846 84.0033 38.198 84.0033 38.539V41.773C84.0033 42.4 83.9257 42.972 83.7704 43.489C83.6262 44.006 83.3877 44.4185 83.055 44.7265C82.7333 45.0345 82.3007 45.1885 81.7572 45.1885C81.4134 45.1885 81.0862 45.106 80.7756 44.941C80.4761 44.776 80.1877 44.567 79.9104 44.314V48.175H77.6477ZM80.9087 43.621C81.1527 43.621 81.3302 43.544 81.4411 43.39C81.5631 43.225 81.6408 43.0105 81.674 42.7465C81.7184 42.4715 81.7406 42.1745 81.7406 41.8555V38.44C81.7406 38.143 81.7184 37.879 81.674 37.648C81.6297 37.406 81.5465 37.2135 81.4245 37.0705C81.3025 36.9275 81.125 36.856 80.8921 36.856C80.7146 36.856 80.5371 36.9 80.3597 36.988C80.1933 37.065 80.0435 37.1585 79.9104 37.2685V43.291C80.0546 43.39 80.2099 43.4725 80.3763 43.5385C80.5427 43.5935 80.7201 43.621 80.9087 43.621Z" fill="white"/>
<path d="M88.472 45.1885C87.7732 45.1885 87.1964 45.062 86.7417 44.809C86.2869 44.545 85.9431 44.1655 85.7101 43.6705C85.4883 43.1755 85.3774 42.576 85.3774 41.872V38.671C85.3774 37.967 85.4883 37.3675 85.7101 36.8725C85.9431 36.3775 86.2869 36.0035 86.7417 35.7505C87.1964 35.4865 87.7732 35.3545 88.472 35.3545C89.1708 35.3545 89.7476 35.4865 90.2023 35.7505C90.6682 36.0035 91.012 36.3775 91.2339 36.8725C91.4668 37.3675 91.5833 37.967 91.5833 38.671V41.872C91.5833 42.576 91.4668 43.1755 91.2339 43.6705C91.012 44.1655 90.6682 44.545 90.2023 44.809C89.7476 45.062 89.1708 45.1885 88.472 45.1885ZM88.4886 43.6375C88.7438 43.6375 88.9323 43.566 89.0543 43.423C89.1763 43.28 89.254 43.0875 89.2873 42.8455C89.3205 42.5925 89.3372 42.3175 89.3372 42.0205V38.5225C89.3372 38.2255 89.3205 37.956 89.2873 37.714C89.254 37.472 89.1763 37.2795 89.0543 37.1365C88.9323 36.9825 88.7438 36.9055 88.4886 36.9055C88.2335 36.9055 88.045 36.9825 87.923 37.1365C87.8009 37.2795 87.7178 37.472 87.6734 37.714C87.6401 37.956 87.6235 38.2255 87.6235 38.5225V42.0205C87.6235 42.3175 87.6401 42.5925 87.6734 42.8455C87.7178 43.0875 87.8009 43.28 87.923 43.423C88.045 43.566 88.2335 43.6375 88.4886 43.6375Z" fill="white"/>
<path d="M96.6757 48.0265V44.71H96.4594C96.0934 44.71 95.7107 44.6605 95.3114 44.5615C94.9121 44.4625 94.535 44.2865 94.1801 44.0335C93.8251 43.7805 93.5312 43.423 93.2983 42.961C93.0764 42.499 92.9655 41.916 92.9655 41.212V38.9845C92.9655 38.3905 93.0598 37.879 93.2483 37.45C93.448 37.021 93.7142 36.669 94.047 36.394C94.3797 36.119 94.7513 35.921 95.1617 35.8C95.5721 35.668 95.9936 35.602 96.4262 35.602H96.6757V31.6915H98.6889V35.602H99.005C99.5818 35.602 100.131 35.7175 100.652 35.9485C101.173 36.1795 101.595 36.5425 101.917 37.0375C102.249 37.5325 102.416 38.1815 102.416 38.9845V41.212C102.416 41.916 102.305 42.499 102.083 42.961C101.861 43.423 101.573 43.7805 101.218 44.0335C100.874 44.2865 100.502 44.4625 100.103 44.5615C99.7038 44.6605 99.3267 44.71 98.9717 44.71H98.6889V48.0265H96.6757ZM96.5093 43.291H96.6757V36.9385H96.4761C96.2099 36.9385 95.9658 36.9935 95.744 37.1035C95.5333 37.2135 95.3613 37.4005 95.2282 37.6645C95.1062 37.9285 95.0452 38.286 95.0452 38.737V41.2945C95.0452 41.7785 95.1007 42.169 95.2116 42.466C95.3336 42.752 95.5055 42.961 95.7274 43.093C95.9492 43.225 96.2099 43.291 96.5093 43.291ZM98.6889 43.291H98.8386C99.1381 43.291 99.3988 43.225 99.6206 43.093C99.8424 42.961 100.014 42.752 100.136 42.466C100.269 42.169 100.336 41.7785 100.336 41.2945V38.737C100.336 38.286 100.269 37.9285 100.136 37.6645C100.014 37.4005 99.8424 37.2135 99.6206 37.1035C99.3988 36.9935 99.1492 36.9385 98.8719 36.9385H98.6889V43.291Z" fill="white"/>
<path d="M106.913 45.1885C106.192 45.1885 105.604 45.0565 105.15 44.7925C104.695 44.5175 104.357 44.1215 104.135 43.6045C103.924 43.0765 103.819 42.444 103.819 41.707V38.836C103.819 38.077 103.924 37.439 104.135 36.922C104.357 36.405 104.695 36.0145 105.15 35.7505C105.616 35.4865 106.203 35.3545 106.913 35.3545C107.679 35.3545 108.272 35.4975 108.694 35.7835C109.126 36.0695 109.431 36.4875 109.609 37.0375C109.797 37.5765 109.891 38.2365 109.891 39.0175V40.3705H106.065V42.2515C106.065 42.5595 106.092 42.8125 106.148 43.0105C106.215 43.2085 106.314 43.3515 106.447 43.4395C106.581 43.5275 106.741 43.5715 106.93 43.5715C107.13 43.5715 107.29 43.5275 107.412 43.4395C107.534 43.3405 107.623 43.203 107.679 43.027C107.734 42.84 107.762 42.609 107.762 42.334V41.542H109.875V42.1855C109.875 43.1535 109.631 43.896 109.143 44.413C108.655 44.93 107.912 45.1885 106.913 45.1885ZM106.065 39.265H107.762V38.3575C107.762 38.0275 107.734 37.7635 107.679 37.5655C107.623 37.3565 107.534 37.208 107.412 37.12C107.29 37.021 107.118 36.9715 106.897 36.9715C106.697 36.9715 106.536 37.021 106.414 37.12C106.292 37.219 106.203 37.384 106.148 37.615C106.092 37.846 106.065 38.176 106.065 38.605V39.265Z" fill="white"/>
<path d="M114.322 45.1885C113.579 45.1885 112.98 45.051 112.525 44.776C112.081 44.49 111.754 44.0885 111.543 43.5715C111.344 43.0435 111.244 42.422 111.244 41.707V38.836C111.244 38.099 111.344 37.472 111.543 36.955C111.754 36.438 112.087 36.042 112.542 35.767C112.996 35.492 113.59 35.3545 114.322 35.3545C115.01 35.3545 115.57 35.4645 116.002 35.6845C116.446 35.8935 116.768 36.218 116.967 36.658C117.167 37.087 117.267 37.6315 117.267 38.2915V39.0835H115.137V38.242C115.137 37.912 115.109 37.6535 115.054 37.4665C115.01 37.2685 114.926 37.131 114.804 37.054C114.682 36.966 114.522 36.922 114.322 36.922C114.122 36.922 113.961 36.977 113.839 37.087C113.717 37.186 113.629 37.351 113.573 37.582C113.529 37.813 113.507 38.132 113.507 38.539V42.037C113.507 42.653 113.573 43.071 113.706 43.291C113.839 43.5 114.05 43.6045 114.339 43.6045C114.56 43.6045 114.727 43.555 114.838 43.456C114.96 43.357 115.037 43.214 115.071 43.027C115.115 42.829 115.137 42.5925 115.137 42.3175V41.2945H117.267V42.202C117.267 42.84 117.161 43.3845 116.951 43.8355C116.751 44.2865 116.429 44.6275 115.986 44.8585C115.553 45.0785 114.999 45.1885 114.322 45.1885Z" fill="white"/>
<path d="M121.65 45.1885C120.907 45.1885 120.308 45.051 119.853 44.776C119.409 44.49 119.082 44.0885 118.871 43.5715C118.672 43.0435 118.572 42.422 118.572 41.707V38.836C118.572 38.099 118.672 37.472 118.871 36.955C119.082 36.438 119.415 36.042 119.869 35.767C120.324 35.492 120.918 35.3545 121.65 35.3545C122.337 35.3545 122.898 35.4645 123.33 35.6845C123.774 35.8935 124.095 36.218 124.295 36.658C124.495 37.087 124.595 37.6315 124.595 38.2915V39.0835H122.465V38.242C122.465 37.912 122.437 37.6535 122.382 37.4665C122.337 37.2685 122.254 37.131 122.132 37.054C122.01 36.966 121.849 36.922 121.65 36.922C121.45 36.922 121.289 36.977 121.167 37.087C121.045 37.186 120.956 37.351 120.901 37.582C120.857 37.813 120.834 38.132 120.834 38.539V42.037C120.834 42.653 120.901 43.071 121.034 43.291C121.167 43.5 121.378 43.6045 121.666 43.6045C121.888 43.6045 122.055 43.555 122.165 43.456C122.287 43.357 122.365 43.214 122.398 43.027C122.443 42.829 122.465 42.5925 122.465 42.3175V41.2945H124.595V42.202C124.595 42.84 124.489 43.3845 124.278 43.8355C124.079 44.2865 123.757 44.6275 123.313 44.8585C122.881 45.0785 122.326 45.1885 121.65 45.1885Z" fill="white"/>
<path d="M126.082 45.04V35.503H127.929V41.245L130.625 35.503H132.388V45.04H130.541V39.298L127.896 45.04H126.082Z" fill="white"/>
<path d="M137.037 45.1885C136.338 45.1885 135.761 45.062 135.306 44.809C134.852 44.545 134.508 44.1655 134.275 43.6705C134.053 43.1755 133.942 42.576 133.942 41.872V38.671C133.942 37.967 134.053 37.3675 134.275 36.8725C134.508 36.3775 134.852 36.0035 135.306 35.7505C135.761 35.4865 136.338 35.3545 137.037 35.3545C137.736 35.3545 138.312 35.4865 138.767 35.7505C139.233 36.0035 139.577 36.3775 139.799 36.8725C140.032 37.3675 140.148 37.967 140.148 38.671V41.872C140.148 42.576 140.032 43.1755 139.799 43.6705C139.577 44.1655 139.233 44.545 138.767 44.809C138.312 45.062 137.736 45.1885 137.037 45.1885ZM137.053 43.6375C137.309 43.6375 137.497 43.566 137.619 43.423C137.741 43.28 137.819 43.0875 137.852 42.8455C137.885 42.5925 137.902 42.3175 137.902 42.0205V38.5225C137.902 38.2255 137.885 37.956 137.852 37.714C137.819 37.472 137.741 37.2795 137.619 37.1365C137.497 36.9825 137.309 36.9055 137.053 36.9055C136.798 36.9055 136.61 36.9825 136.488 37.1365C136.366 37.2795 136.283 37.472 136.238 37.714C136.205 37.956 136.188 38.2255 136.188 38.5225V42.0205C136.188 42.3175 136.205 42.5925 136.238 42.8455C136.283 43.0875 136.366 43.28 136.488 43.423C136.61 43.566 136.798 43.6375 137.053 43.6375Z" fill="white"/>
<path d="M141.697 45.04V35.503H143.959V39.3475H145.906V35.503H148.169V45.04H145.906V40.9315H143.959V45.04H141.697Z" fill="white"/>
<path d="M151.765 45.1885C151.333 45.1885 150.961 45.0785 150.65 44.8585C150.34 44.6275 150.101 44.3415 149.935 44.0005C149.769 43.6485 149.686 43.2855 149.686 42.9115C149.686 42.3175 149.796 41.817 150.018 41.41C150.24 41.003 150.534 40.662 150.9 40.387C151.266 40.112 151.682 39.8755 152.148 39.6775C152.614 39.4685 153.085 39.2815 153.562 39.1165V38.2915C153.562 38.0165 153.54 37.7855 153.496 37.5985C153.462 37.4115 153.39 37.2685 153.279 37.1695C153.179 37.0705 153.019 37.021 152.797 37.021C152.608 37.021 152.453 37.065 152.331 37.153C152.22 37.241 152.137 37.3675 152.081 37.5325C152.037 37.6865 152.009 37.868 151.998 38.077L151.965 38.6545L149.819 38.572C149.852 37.472 150.124 36.6635 150.634 36.1465C151.155 35.6185 151.943 35.3545 152.996 35.3545C153.961 35.3545 154.66 35.6185 155.093 36.1465C155.536 36.6745 155.758 37.3895 155.758 38.2915V42.697C155.758 43.049 155.764 43.368 155.775 43.654C155.797 43.94 155.819 44.1985 155.841 44.4295C155.875 44.6605 155.902 44.864 155.925 45.04H153.895C153.862 44.82 153.817 44.5725 153.762 44.2975C153.717 44.0115 153.684 43.8025 153.662 43.6705C153.551 44.0555 153.34 44.4075 153.03 44.7265C152.719 45.0345 152.298 45.1885 151.765 45.1885ZM152.597 43.522C152.741 43.522 152.874 43.489 152.996 43.423C153.13 43.346 153.246 43.258 153.346 43.159C153.446 43.06 153.518 42.972 153.562 42.895V40.2385C153.318 40.3815 153.085 40.5245 152.863 40.6675C152.653 40.8105 152.464 40.97 152.298 41.146C152.142 41.311 152.02 41.4925 151.932 41.6905C151.854 41.8885 151.815 42.1195 151.815 42.3835C151.815 42.7355 151.882 43.016 152.015 43.225C152.159 43.423 152.353 43.522 152.597 43.522Z" fill="white"/>
<path d="M156.809 45.139V43.5055C157.153 43.5055 157.43 43.445 157.641 43.324C157.852 43.203 158.018 42.9995 158.14 42.7135C158.262 42.4165 158.356 42.0205 158.423 41.5255C158.489 41.0195 158.55 40.387 158.606 39.628L158.872 35.503H164.462V45.04H162.2V37.087H160.819L160.619 39.892C160.552 40.937 160.453 41.8005 160.32 42.4825C160.198 43.1645 160.009 43.698 159.754 44.083C159.51 44.468 159.177 44.743 158.756 44.908C158.334 45.062 157.796 45.139 157.142 45.139H156.809Z" fill="white"/>
<path d="M166.282 40.4035V38.8855H170.291V40.4035H166.282Z" fill="white"/>
<path d="M172.296 45.04V31.675H174.741V37.285H175.24L177.42 31.675H179.866L177.304 37.978L180.065 45.04H177.57L175.24 38.8855H174.741V45.04H172.296Z" fill="white"/>
<path d="M182.977 45.1885C182.545 45.1885 182.173 45.0785 181.863 44.8585C181.552 44.6275 181.314 44.3415 181.147 44.0005C180.981 43.6485 180.898 43.2855 180.898 42.9115C180.898 42.3175 181.008 41.817 181.23 41.41C181.452 41.003 181.746 40.662 182.112 40.387C182.478 40.112 182.894 39.8755 183.36 39.6775C183.826 39.4685 184.297 39.2815 184.774 39.1165V38.2915C184.774 38.0165 184.752 37.7855 184.708 37.5985C184.674 37.4115 184.602 37.2685 184.491 37.1695C184.392 37.0705 184.231 37.021 184.009 37.021C183.82 37.021 183.665 37.065 183.543 37.153C183.432 37.241 183.349 37.3675 183.293 37.5325C183.249 37.6865 183.221 37.868 183.21 38.077L183.177 38.6545L181.031 38.572C181.064 37.472 181.336 36.6635 181.846 36.1465C182.367 35.6185 183.155 35.3545 184.208 35.3545C185.173 35.3545 185.872 35.6185 186.305 36.1465C186.749 36.6745 186.97 37.3895 186.97 38.2915V42.697C186.97 43.049 186.976 43.368 186.987 43.654C187.009 43.94 187.031 44.1985 187.054 44.4295C187.087 44.6605 187.115 44.864 187.137 45.04H185.107C185.074 44.82 185.029 44.5725 184.974 44.2975C184.929 44.0115 184.896 43.8025 184.874 43.6705C184.763 44.0555 184.552 44.4075 184.242 44.7265C183.931 45.0345 183.51 45.1885 182.977 45.1885ZM183.809 43.522C183.953 43.522 184.086 43.489 184.208 43.423C184.342 43.346 184.458 43.258 184.558 43.159C184.658 43.06 184.73 42.972 184.774 42.895V40.2385C184.53 40.3815 184.297 40.5245 184.075 40.6675C183.865 40.8105 183.676 40.97 183.51 41.146C183.354 41.311 183.232 41.4925 183.144 41.6905C183.066 41.8885 183.027 42.1195 183.027 42.3835C183.027 42.7355 183.094 43.016 183.227 43.225C183.371 43.423 183.565 43.522 183.809 43.522Z" fill="white"/>
<path d="M188.603 45.04L188.67 35.503H190.35L192.38 40.7005L194.443 35.503H196.107L196.174 45.04H194.36V39.694L192.746 43.819H192.064L190.433 39.7105V45.04H188.603Z" fill="white"/>
<path d="M200.793 45.1885C200.072 45.1885 199.484 45.0565 199.03 44.7925C198.575 44.5175 198.237 44.1215 198.015 43.6045C197.804 43.0765 197.699 42.444 197.699 41.707V38.836C197.699 38.077 197.804 37.439 198.015 36.922C198.237 36.405 198.575 36.0145 199.03 35.7505C199.495 35.4865 200.083 35.3545 200.793 35.3545C201.559 35.3545 202.152 35.4975 202.573 35.7835C203.006 36.0695 203.311 36.4875 203.489 37.0375C203.677 37.5765 203.771 38.2365 203.771 39.0175V40.3705H199.945V42.2515C199.945 42.5595 199.972 42.8125 200.028 43.0105C200.094 43.2085 200.194 43.3515 200.327 43.4395C200.46 43.5275 200.621 43.5715 200.81 43.5715C201.01 43.5715 201.17 43.5275 201.292 43.4395C201.414 43.3405 201.503 43.203 201.559 43.027C201.614 42.84 201.642 42.609 201.642 42.334V41.542H203.755V42.1855C203.755 43.1535 203.511 43.896 203.023 44.413C202.535 44.93 201.792 45.1885 200.793 45.1885ZM199.945 39.265H201.642V38.3575C201.642 38.0275 201.614 37.7635 201.559 37.5655C201.503 37.3565 201.414 37.208 201.292 37.12C201.17 37.021 200.998 36.9715 200.777 36.9715C200.577 36.9715 200.416 37.021 200.294 37.12C200.172 37.219 200.083 37.384 200.028 37.615C199.972 37.846 199.945 38.176 199.945 38.605V39.265Z" fill="white"/>
<path d="M205.307 45.04V35.503H207.57V39.3475H209.516V35.503H211.779V45.04H209.516V40.9315H207.57V45.04H205.307Z" fill="white"/>
<path d="M213.512 45.04V35.503H215.775V39.3805C215.797 39.3805 215.819 39.3805 215.841 39.3805C215.864 39.3805 215.886 39.3805 215.908 39.3805C215.93 39.3805 215.947 39.3805 215.958 39.3805C216.623 39.3915 217.195 39.441 217.671 39.529C218.16 39.606 218.559 39.749 218.869 39.958C219.191 40.167 219.43 40.453 219.585 40.816C219.74 41.168 219.818 41.6245 219.818 42.1855C219.818 42.7025 219.746 43.1425 219.601 43.5055C219.468 43.8685 219.241 44.1655 218.919 44.3965C218.609 44.6165 218.198 44.7815 217.688 44.8915C217.189 44.9905 216.584 45.04 215.875 45.04H213.512ZM215.775 43.753H215.858C216.346 43.753 216.729 43.709 217.006 43.621C217.283 43.522 217.477 43.3625 217.588 43.1425C217.71 42.9115 217.771 42.598 217.771 42.202C217.771 41.828 217.716 41.5365 217.605 41.3275C217.494 41.1075 217.3 40.948 217.023 40.849C216.756 40.75 216.385 40.7005 215.908 40.7005C215.897 40.7005 215.875 40.7005 215.841 40.7005C215.819 40.7005 215.797 40.7005 215.775 40.7005V43.753Z" fill="white"/>
<path d="M221.084 45.04V35.503H225.443V37.054H223.346V45.04H221.084Z" fill="white"/>
<path d="M226.445 48.175V35.503H228.708V36.229C228.985 35.965 229.29 35.756 229.623 35.602C229.956 35.437 230.305 35.3545 230.671 35.3545C231.104 35.3545 231.459 35.4535 231.736 35.6515C232.013 35.8495 232.23 36.1135 232.385 36.4435C232.54 36.7625 232.646 37.109 232.701 37.483C232.768 37.846 232.801 38.198 232.801 38.539V41.773C232.801 42.4 232.723 42.972 232.568 43.489C232.424 44.006 232.185 44.4185 231.853 44.7265C231.531 45.0345 231.098 45.1885 230.555 45.1885C230.211 45.1885 229.884 45.106 229.573 44.941C229.274 44.776 228.985 44.567 228.708 44.314V48.175H226.445ZM229.706 43.621C229.95 43.621 230.128 43.544 230.239 43.39C230.361 43.225 230.438 43.0105 230.472 42.7465C230.516 42.4715 230.538 42.1745 230.538 41.8555V38.44C230.538 38.143 230.516 37.879 230.472 37.648C230.427 37.406 230.344 37.2135 230.222 37.0705C230.1 36.9275 229.923 36.856 229.69 36.856C229.512 36.856 229.335 36.9 229.157 36.988C228.991 37.065 228.841 37.1585 228.708 37.2685V43.291C228.852 43.39 229.008 43.4725 229.174 43.5385C229.34 43.5935 229.518 43.621 229.706 43.621Z" fill="white"/>
<path d="M236.221 45.1885C235.789 45.1885 235.417 45.0785 235.107 44.8585C234.796 44.6275 234.558 44.3415 234.391 44.0005C234.225 43.6485 234.142 43.2855 234.142 42.9115C234.142 42.3175 234.253 41.817 234.474 41.41C234.696 41.003 234.99 40.662 235.356 40.387C235.722 40.112 236.138 39.8755 236.604 39.6775C237.07 39.4685 237.541 39.2815 238.018 39.1165V38.2915C238.018 38.0165 237.996 37.7855 237.952 37.5985C237.918 37.4115 237.846 37.2685 237.735 37.1695C237.636 37.0705 237.475 37.021 237.253 37.021C237.064 37.021 236.909 37.065 236.787 37.153C236.676 37.241 236.593 37.3675 236.538 37.5325C236.493 37.6865 236.465 37.868 236.454 38.077L236.421 38.6545L234.275 38.572C234.308 37.472 234.58 36.6635 235.09 36.1465C235.611 35.6185 236.399 35.3545 237.453 35.3545C238.418 35.3545 239.116 35.6185 239.549 36.1465C239.993 36.6745 240.214 37.3895 240.214 38.2915V42.697C240.214 43.049 240.22 43.368 240.231 43.654C240.253 43.94 240.276 44.1985 240.298 44.4295C240.331 44.6605 240.359 44.864 240.381 45.04H238.351C238.318 44.82 238.273 44.5725 238.218 44.2975C238.174 44.0115 238.14 43.8025 238.118 43.6705C238.007 44.0555 237.796 44.4075 237.486 44.7265C237.175 45.0345 236.754 45.1885 236.221 45.1885ZM237.053 43.522C237.198 43.522 237.331 43.489 237.453 43.423C237.586 43.346 237.702 43.258 237.802 43.159C237.902 43.06 237.974 42.972 238.018 42.895V40.2385C237.774 40.3815 237.541 40.5245 237.32 40.6675C237.109 40.8105 236.92 40.97 236.754 41.146C236.599 41.311 236.477 41.4925 236.388 41.6905C236.31 41.8885 236.271 42.1195 236.271 42.3835C236.271 42.7355 236.338 43.016 236.471 43.225C236.615 43.423 236.809 43.522 237.053 43.522Z" fill="white"/>
<path d="M241.298 47.548V43.6375C241.653 43.4285 241.964 43.17 242.23 42.862C242.507 42.543 242.746 42.1525 242.946 41.6905C243.145 41.2285 243.301 40.673 243.411 40.024C243.533 39.375 243.606 38.605 243.628 37.714L243.794 35.503H248.636V43.588H249.917V47.548H248.286L248.12 45.04H243.112L242.962 47.548H241.298ZM243.661 43.588H246.523V36.9385H245.508L245.391 38.2255C245.369 39.0945 245.308 39.8315 245.208 40.4365C245.108 41.0415 244.981 41.5475 244.826 41.9545C244.67 42.3615 244.493 42.6915 244.293 42.9445C244.094 43.1975 243.883 43.412 243.661 43.588Z" fill="white"/>
<path d="M111 27.54V18.003H114.544V18.9105H112.215V27.54H111Z" fill="white"/>
<path d="M115.712 30.675V18.003H116.926V18.795C117.126 18.553 117.376 18.3385 117.675 18.1515C117.975 17.9535 118.341 17.8545 118.773 17.8545C119.239 17.8545 119.611 17.9645 119.888 18.1845C120.176 18.3935 120.398 18.6795 120.553 19.0425C120.709 19.4055 120.814 19.8125 120.87 20.2635C120.925 20.7145 120.953 21.1765 120.953 21.6495V23.6625C120.953 24.4765 120.886 25.186 120.753 25.791C120.62 26.385 120.382 26.8525 120.038 27.1935C119.705 27.5235 119.239 27.6885 118.64 27.6885C118.252 27.6885 117.914 27.5895 117.625 27.3915C117.348 27.1935 117.115 26.99 116.926 26.781V30.675H115.712ZM118.457 26.7315C118.823 26.7315 119.095 26.616 119.272 26.385C119.461 26.154 119.583 25.813 119.638 25.362C119.705 24.9 119.738 24.3445 119.738 23.6955V21.6495C119.738 21.0335 119.705 20.5165 119.638 20.0985C119.583 19.6695 119.461 19.345 119.272 19.125C119.084 18.905 118.801 18.795 118.424 18.795C118.113 18.795 117.825 18.8775 117.559 19.0425C117.304 19.2075 117.093 19.3725 116.926 19.5375V26.0385C117.104 26.2255 117.32 26.3905 117.575 26.5335C117.842 26.6655 118.135 26.7315 118.457 26.7315Z" fill="white"/>
<path d="M122.383 29.916V28.9755C122.938 28.9755 123.354 28.9315 123.631 28.8435C123.92 28.7665 124.108 28.651 124.197 28.497C124.297 28.354 124.347 28.1835 124.347 27.9855C124.347 27.8095 124.313 27.5785 124.247 27.2925C124.18 27.0065 124.108 26.7095 124.031 26.4015L122.051 18.003H123.265L124.929 26.121L126.543 18.003H127.774L125.445 28.2165C125.356 28.6235 125.195 28.948 124.962 29.19C124.741 29.443 124.441 29.6245 124.064 29.7345C123.698 29.8555 123.243 29.916 122.7 29.916H122.383Z" fill="white"/>
<path d="M128.986 27.54V18.003H134.127V27.54H132.913V18.9435H130.201V27.54H128.986Z" fill="white"/>
<path d="M135.973 27.54V18.003H141.114V27.54H139.899V18.9435H137.187V27.54H135.973Z" fill="white"/>
<path d="M144.623 27.6885C144.235 27.6885 143.897 27.595 143.608 27.408C143.32 27.21 143.093 26.9515 142.926 26.6325C142.771 26.3025 142.693 25.945 142.693 25.56C142.693 25.076 142.76 24.6635 142.893 24.3225C143.037 23.9815 143.259 23.679 143.558 23.415C143.869 23.14 144.268 22.876 144.756 22.623C145.255 22.359 145.86 22.0675 146.57 21.7485V21.072C146.57 20.489 146.531 20.0325 146.453 19.7025C146.387 19.3615 146.265 19.1195 146.087 18.9765C145.921 18.8335 145.683 18.762 145.372 18.762C145.117 18.762 144.889 18.8115 144.69 18.9105C144.49 19.0095 144.329 19.18 144.207 19.422C144.085 19.653 144.024 19.9775 144.024 20.3955V20.7255L142.826 20.709C142.837 19.741 143.043 19.026 143.442 18.564C143.852 18.091 144.518 17.8545 145.439 17.8545C146.304 17.8545 146.908 18.113 147.252 18.63C147.607 19.136 147.784 19.928 147.784 21.006V25.6425C147.784 25.8075 147.79 26.022 147.801 26.286C147.812 26.539 147.823 26.781 147.834 27.012C147.845 27.243 147.857 27.419 147.868 27.54H146.786C146.764 27.331 146.731 27.1 146.686 26.847C146.642 26.583 146.614 26.374 146.603 26.22C146.47 26.605 146.232 26.946 145.888 27.243C145.555 27.54 145.133 27.6885 144.623 27.6885ZM145.006 26.6655C145.25 26.6655 145.472 26.605 145.671 26.484C145.871 26.363 146.049 26.22 146.204 26.055C146.359 25.879 146.481 25.703 146.57 25.527V22.557C146.093 22.799 145.683 23.019 145.339 23.217C145.006 23.415 144.734 23.6075 144.523 23.7945C144.313 23.9815 144.157 24.196 144.058 24.438C143.958 24.669 143.908 24.944 143.908 25.263C143.908 25.769 144.019 26.132 144.241 26.352C144.462 26.561 144.718 26.6655 145.006 26.6655Z" fill="white"/>
<path d="M152.968 27.54V18.003H154.183V22.2105H154.865L157.061 18.003H158.326L155.98 22.6065L158.392 27.54H157.128L154.865 22.953H154.183V27.54H152.968Z" fill="white"/>
<path d="M161.798 27.6885C161.143 27.6885 160.628 27.551 160.25 27.276C159.884 26.99 159.624 26.583 159.468 26.055C159.313 25.516 159.236 24.8615 159.236 24.0915V21.4515C159.236 20.6815 159.313 20.0325 159.468 19.5045C159.624 18.9655 159.884 18.5585 160.25 18.2835C160.628 17.9975 161.143 17.8545 161.798 17.8545C162.474 17.8545 162.996 17.9975 163.362 18.2835C163.728 18.5585 163.988 18.9655 164.144 19.5045C164.299 20.0325 164.377 20.6815 164.377 21.4515V24.0915C164.377 24.8615 164.299 25.516 164.144 26.055C163.988 26.583 163.728 26.99 163.362 27.276C162.996 27.551 162.474 27.6885 161.798 27.6885ZM161.798 26.781C162.219 26.781 162.524 26.671 162.713 26.451C162.912 26.231 163.034 25.923 163.079 25.527C163.123 25.12 163.145 24.6635 163.145 24.1575V21.3855C163.145 20.8685 163.123 20.4175 163.079 20.0325C163.034 19.6365 162.912 19.3285 162.713 19.1085C162.524 18.8775 162.219 18.762 161.798 18.762C161.376 18.762 161.071 18.8775 160.883 19.1085C160.694 19.3285 160.578 19.6365 160.533 20.0325C160.489 20.4175 160.467 20.8685 160.467 21.3855V24.1575C160.467 24.6635 160.489 25.12 160.533 25.527C160.578 25.923 160.694 26.231 160.883 26.451C161.071 26.671 161.376 26.781 161.798 26.781Z" fill="white"/>
<path d="M165.997 27.54L166.081 18.003H166.996L169.242 24.5535L171.488 18.003H172.436L172.519 27.54H171.471L171.455 20.841L169.441 26.55H169.059L167.062 20.874L167.046 27.54H165.997Z" fill="white"/>
<path d="M174.302 27.54V18.003H179.443V27.54H178.228V18.9435H175.516V27.54H174.302Z" fill="white"/>
<path d="M182.952 27.6885C182.564 27.6885 182.225 27.595 181.937 27.408C181.649 27.21 181.421 26.9515 181.255 26.6325C181.1 26.3025 181.022 25.945 181.022 25.56C181.022 25.076 181.088 24.6635 181.222 24.3225C181.366 23.9815 181.588 23.679 181.887 23.415C182.198 23.14 182.597 22.876 183.085 22.623C183.584 22.359 184.189 22.0675 184.898 21.7485V21.072C184.898 20.489 184.86 20.0325 184.782 19.7025C184.715 19.3615 184.593 19.1195 184.416 18.9765C184.25 18.8335 184.011 18.762 183.701 18.762C183.445 18.762 183.218 18.8115 183.018 18.9105C182.819 19.0095 182.658 19.18 182.536 19.422C182.414 19.653 182.353 19.9775 182.353 20.3955V20.7255L181.155 20.709C181.166 19.741 181.371 19.026 181.771 18.564C182.181 18.091 182.847 17.8545 183.767 17.8545C184.632 17.8545 185.237 18.113 185.581 18.63C185.936 19.136 186.113 19.928 186.113 21.006V25.6425C186.113 25.8075 186.119 26.022 186.13 26.286C186.141 26.539 186.152 26.781 186.163 27.012C186.174 27.243 186.185 27.419 186.196 27.54H185.115C185.093 27.331 185.059 27.1 185.015 26.847C184.971 26.583 184.943 26.374 184.932 26.22C184.799 26.605 184.56 26.946 184.216 27.243C183.884 27.54 183.462 27.6885 182.952 27.6885ZM183.335 26.6655C183.579 26.6655 183.8 26.605 184 26.484C184.2 26.363 184.377 26.22 184.532 26.055C184.688 25.879 184.81 25.703 184.898 25.527V22.557C184.422 22.799 184.011 23.019 183.667 23.217C183.335 23.415 183.063 23.6075 182.852 23.7945C182.641 23.9815 182.486 24.196 182.386 24.438C182.286 24.669 182.236 24.944 182.236 25.263C182.236 25.769 182.347 26.132 182.569 26.352C182.791 26.561 183.046 26.6655 183.335 26.6655Z" fill="white"/>
<path d="M187.901 27.54V18.003H189.116V22.161H192.11V18.003H193.342V27.54H192.11V23.0685H189.116V27.54H187.901Z" fill="white"/>
<path d="M195.196 27.54V18.003H196.228V25.3455L199.439 18.003H200.421V27.54H199.389V20.214L196.211 27.54H195.196Z" fill="white"/>
<path d="M202.28 27.54V18.003H203.312V25.3455L206.523 18.003H207.505V27.54H206.473V20.214L203.295 27.54H202.28ZM204.909 16.98C204.266 16.98 203.778 16.8095 203.445 16.4685C203.112 16.1165 202.935 15.627 202.913 15H203.694C203.706 15.44 203.817 15.759 204.027 15.957C204.249 16.155 204.543 16.254 204.909 16.254C205.286 16.254 205.58 16.155 205.791 15.957C206.013 15.759 206.135 15.44 206.157 15H206.922C206.911 15.627 206.734 16.1165 206.39 16.4685C206.057 16.8095 205.563 16.98 204.909 16.98Z" fill="white"/>
<path fill-rule="evenodd" clip-rule="evenodd" d="M32.6478 17.219H31.2696V19.3629H32.6478V17.219ZM34.7152 17.219H33.337V19.3629H34.7152V17.219ZM31.2695 19.899H32.6478V22.0429H31.2695V19.899ZM34.7152 19.899H33.337V22.0429H34.7152V19.899Z" fill="white"/>
<path fill-rule="evenodd" clip-rule="evenodd" d="M32.6478 23.6365H31.2696V25.7804H32.6478V23.6365ZM34.7152 23.6365H33.337V25.7804H34.7152V23.6365ZM31.2695 26.3164H32.6478V28.4603H31.2695V26.3164ZM34.7152 26.3164H33.337V28.4603H34.7152V26.3164Z" fill="white"/>
<path fill-rule="evenodd" clip-rule="evenodd" d="M23.9994 18.1479L16.6501 20.126V15.3787L14.8128 14.6864L12.9756 15.3787V20.9171H13.7109L11.1387 21.6094V43.7628L30.0737 42.0371L49.7209 43.7628V18.8402L47.8837 18.1479V15.3787L46.0464 14.6864L44.2092 15.3787V18.1479H44.2091L41.4532 19.5325L38.6974 18.8402V15.3787H40.5346V13.3018H38.6974L31.3484 3.60967L23.9994 13.3018H22.1622V15.3787H23.9994V18.1479ZM28.5923 14.6864H37.7785V33.3784H39.6158V35.4553H41.453V37.5322H43.2903V38.9168H16.6502V26.4555L18.4874 25.7632L20.3247 26.4555V29.917H28.5923V14.6864ZM47.8837 38.9169V19.5326H44.2092V38.9169H47.8837Z" fill="#262B31"/>
<path d="M16.6501 20.126H16.113V20.8267L16.7897 20.6446L16.6501 20.126ZM23.9994 18.1479L24.139 18.6665L24.5364 18.5595V18.1479H23.9994ZM16.6501 15.3787H17.1871V15.0072L16.8394 14.8761L16.6501 15.3787ZM14.8128 14.6864L15.0022 14.1839L14.8128 14.1125L14.6235 14.1839L14.8128 14.6864ZM12.9756 15.3787L12.7862 14.8761L12.4385 15.0072V15.3787H12.9756ZM12.9756 20.9171H12.4385V21.4541H12.9756V20.9171ZM13.7109 20.9171L13.8505 21.4356L13.7109 20.38V20.9171ZM11.1387 21.6094L10.9991 21.0908L10.6016 21.1978V21.6094H11.1387ZM11.1387 43.7628H10.6016V44.3511L11.1874 44.2977L11.1387 43.7628ZM30.0737 42.0371L30.1207 41.5021L30.0728 41.4979L30.0249 41.5023L30.0737 42.0371ZM49.7209 43.7628L49.6739 44.2978L50.2579 44.3491V43.7628H49.7209ZM49.7209 18.8402H50.2579V18.4687L49.9102 18.3376L49.7209 18.8402ZM47.8837 18.1479H47.3466V18.5195L47.6943 18.6505L47.8837 18.1479ZM47.8837 15.3787H48.4207V15.0072L48.073 14.8762L47.8837 15.3787ZM46.0464 14.6864L46.2358 14.1839L46.0464 14.1125L45.8571 14.1839L46.0464 14.6864ZM44.2092 15.3787L44.0198 14.8762L43.6721 15.0072V15.3787H44.2092ZM44.2092 18.1479V18.6849H44.7462V18.1479H44.2092ZM44.2091 18.1479V17.6109H44.0818L43.968 17.668L44.2091 18.1479ZM41.4532 19.5325L41.3224 20.0533L41.516 20.102L41.6943 20.0124L41.4532 19.5325ZM38.6974 18.8402H38.1603V19.259L38.5665 19.361L38.6974 18.8402ZM38.6974 15.3787V14.8417H38.1603V15.3787H38.6974ZM40.5346 15.3787V15.9157H41.0717V15.3787H40.5346ZM40.5346 13.3018H41.0717V12.7648H40.5346V13.3018ZM38.6974 13.3018L38.2694 13.6263L38.4306 13.8389H38.6974V13.3018ZM31.3484 3.60967L31.7763 3.2852L31.3484 2.72083L30.9205 3.2852L31.3484 3.60967ZM23.9994 13.3018V13.8389H24.2662L24.4273 13.6263L23.9994 13.3018ZM22.1622 13.3018V12.7648H21.6251V13.3018H22.1622ZM22.1622 15.3787H21.6251V15.9157H22.1622V15.3787ZM23.9994 15.3787H24.5364V14.8417H23.9994V15.3787ZM37.7785 14.6864H38.3156V14.1494H37.7785V14.6864ZM28.5923 14.6864V14.1494H28.0553V14.6864H28.5923ZM37.7785 33.3784H37.2415V33.9155H37.7785V33.3784ZM39.6158 33.3784H40.1528V32.8414H39.6158V33.3784ZM39.6158 35.4553H39.0787V35.9924H39.6158V35.4553ZM41.453 35.4553H41.9901V34.9183H41.453V35.4553ZM41.453 37.5322H40.916V38.0693H41.453V37.5322ZM43.2903 37.5322H43.8273V36.9952H43.2903V37.5322ZM43.2903 38.9168V39.4538H43.8273V38.9168H43.2903ZM16.6502 38.9168H16.1132V39.4538H16.6502V38.9168ZM16.6502 26.4555L16.4608 25.9529L16.1132 26.0839V26.4555H16.6502ZM18.4874 25.7632L18.6768 25.2606L18.4874 25.1893L18.2981 25.2606L18.4874 25.7632ZM20.3247 26.4555H20.8617V26.0839L20.514 25.9529L20.3247 26.4555ZM20.3247 29.917H19.7876V30.454H20.3247V29.917ZM28.5923 29.917V30.454H29.1293V29.917H28.5923ZM47.8837 19.5326H48.4207V18.9955H47.8837V19.5326ZM47.8837 38.9169V39.4539H48.4207V38.9169H47.8837ZM44.2092 19.5326V18.9955H43.6721V19.5326H44.2092ZM44.2092 38.9169H43.6721V39.4539H44.2092V38.9169ZM16.7897 20.6446L24.139 18.6665L23.8598 17.6293L16.5105 19.6074L16.7897 20.6446ZM16.113 15.3787V20.126H17.1871V15.3787H16.113ZM14.6235 15.1889L16.4607 15.8812L16.8394 14.8761L15.0022 14.1839L14.6235 15.1889ZM13.165 15.8812L15.0022 15.1889L14.6235 14.1839L12.7862 14.8761L13.165 15.8812ZM13.5126 20.9171V15.3787H12.4385V20.9171H13.5126ZM13.7109 20.38H12.9756V21.4541H13.7109V20.38ZM11.2782 22.128L13.8505 21.4356L13.5713 20.3985L10.9991 21.0908L11.2782 22.128ZM11.6757 43.7628V21.6094H10.6016V43.7628H11.6757ZM30.0249 41.5023L11.0899 43.228L11.1874 44.2977L30.1224 42.5719L30.0249 41.5023ZM49.7678 43.2279L30.1207 41.5021L30.0267 42.5721L49.6739 44.2978L49.7678 43.2279ZM49.1838 18.8402V43.7628H50.2579V18.8402H49.1838ZM47.6943 18.6505L49.5315 19.3427L49.9102 18.3376L48.073 17.6454L47.6943 18.6505ZM47.3466 15.3787V18.1479H48.4207V15.3787H47.3466ZM45.8571 15.189L47.6943 15.8813L48.073 14.8762L46.2358 14.1839L45.8571 15.189ZM44.3986 15.8813L46.2358 15.189L45.8571 14.1839L44.0198 14.8762L44.3986 15.8813ZM44.7462 18.1479V15.3787H43.6721V18.1479H44.7462ZM44.2091 18.6849H44.2092V17.6109H44.2091V18.6849ZM41.6943 20.0124L44.4502 18.6278L43.968 17.668L41.2122 19.0526L41.6943 20.0124ZM38.5665 19.361L41.3224 20.0533L41.5841 19.0116L38.8282 18.3193L38.5665 19.361ZM38.1603 15.3787V18.8402H39.2344V15.3787H38.1603ZM40.5346 14.8417H38.6974V15.9157H40.5346V14.8417ZM39.9976 13.3018V15.3787H41.0717V13.3018H39.9976ZM38.6974 13.8389H40.5346V12.7648H38.6974V13.8389ZM30.9205 3.93415L38.2694 13.6263L39.1253 12.9773L31.7763 3.2852L30.9205 3.93415ZM24.4273 13.6263L31.7763 3.93415L30.9205 3.2852L23.5715 12.9773L24.4273 13.6263ZM22.1622 13.8389H23.9994V12.7648H22.1622V13.8389ZM22.6992 15.3787V13.3018H21.6251V15.3787H22.6992ZM23.9994 14.8417H22.1622V15.9157H23.9994V14.8417ZM24.5364 18.1479V15.3787H23.4624V18.1479H24.5364ZM37.7785 14.1494H28.5923V15.2235H37.7785V14.1494ZM38.3156 33.3784V14.6864H37.2415V33.3784H38.3156ZM39.6158 32.8414H37.7785V33.9155H39.6158V32.8414ZM40.1528 35.4553V33.3784H39.0787V35.4553H40.1528ZM41.453 34.9183H39.6158V35.9924H41.453V34.9183ZM41.9901 37.5322V35.4553H40.916V37.5322H41.9901ZM43.2903 36.9952H41.453V38.0693H43.2903V36.9952ZM43.8273 38.9168V37.5322H42.7532V38.9168H43.8273ZM16.6502 39.4538H43.2903V38.3798H16.6502V39.4538ZM16.1132 26.4555V38.9168H17.1872V26.4555H16.1132ZM18.2981 25.2606L16.4608 25.9529L16.8396 26.958L18.6768 26.2657L18.2981 25.2606ZM20.514 25.9529L18.6768 25.2606L18.2981 26.2657L20.1353 26.958L20.514 25.9529ZM20.8617 29.917V26.4555H19.7876V29.917H20.8617ZM28.5923 29.3799H20.3247V30.454H28.5923V29.3799ZM28.0553 14.6864V29.917H29.1293V14.6864H28.0553ZM47.3466 19.5326V38.9169H48.4207V19.5326H47.3466ZM44.2092 20.0696H47.8837V18.9955H44.2092V20.0696ZM44.7462 38.9169V19.5326H43.6721V38.9169H44.7462ZM47.8837 38.3798H44.2092V39.4539H47.8837V38.3798ZM31.8854 3.60967V0.148193H30.8114V3.60967H31.8854ZM15.3499 14.6864V11.2249H14.2758V14.6864H15.3499ZM46.5835 14.6864V11.2249H45.5094V14.6864H46.5835ZM19.0245 25.7632V23.6863H17.9504V25.7632H19.0245Z" fill="white"/>
<path fill-rule="evenodd" clip-rule="evenodd" d="M23.9994 18.1479L16.6501 20.126V15.3787L14.8128 14.6864L12.9756 15.3787V20.9171H13.7109L11.1387 21.6094V43.7628L30.0737 42.0371L49.7209 43.7628V18.8402L47.8837 18.1479V15.3787L46.0464 14.6864L44.2092 15.3787V18.1479H44.2091L41.4532 19.5325L38.6974 18.8402V15.3787H40.5346V13.3018H38.6974L31.3484 3.60967L23.9994 13.3018H22.1622V15.3787H23.9994V18.1479ZM28.5923 14.6864H37.7785V33.3784H39.6158V35.4553H41.453V37.5322H43.2903V38.9168H16.6502V26.4555L18.4874 25.7632L20.3247 26.4555V29.917H28.5923V14.6864ZM47.8837 38.9169V19.5326H44.2092V38.9169H47.8837Z" fill="white"/>
<path d="M16.6501 20.126H16.4501V20.3869L16.7021 20.3191L16.6501 20.126ZM23.9994 18.1479L24.0514 18.341L24.1994 18.3012V18.1479H23.9994ZM16.6501 15.3787H16.8501V15.2403L16.7206 15.1915L16.6501 15.3787ZM14.8128 14.6864L14.8834 14.4992L14.8128 14.4727L14.7423 14.4992L14.8128 14.6864ZM12.9756 15.3787L12.9051 15.1915L12.7756 15.2403V15.3787H12.9756ZM12.9756 20.9171H12.7756V21.1171H12.9756V20.9171ZM13.7109 20.9171L13.7629 21.1102L13.7109 20.7171V20.9171ZM11.1387 21.6094L11.0867 21.4162L10.9387 21.4561V21.6094H11.1387ZM11.1387 43.7628H10.9387V43.9819L11.1568 43.962L11.1387 43.7628ZM30.0737 42.0371L30.0912 41.8379L30.0734 41.8363L30.0555 41.8379L30.0737 42.0371ZM49.7209 43.7628L49.7034 43.9621L49.9209 43.9812V43.7628H49.7209ZM49.7209 18.8402H49.9209V18.7018L49.7914 18.653L49.7209 18.8402ZM47.8837 18.1479H47.6837V18.2863L47.8132 18.3351L47.8837 18.1479ZM47.8837 15.3787H48.0837V15.2404L47.9542 15.1916L47.8837 15.3787ZM46.0464 14.6864L46.117 14.4993L46.0464 14.4727L45.9759 14.4993L46.0464 14.6864ZM44.2092 15.3787L44.1387 15.1916L44.0092 15.2404V15.3787H44.2092ZM44.2092 18.1479V18.3479H44.4092V18.1479H44.2092ZM44.2091 18.1479V17.9479H44.1617L44.1193 17.9692L44.2091 18.1479ZM41.4532 19.5325L41.4045 19.7265L41.4766 19.7446L41.543 19.7112L41.4532 19.5325ZM38.6974 18.8402H38.4974V18.9962L38.6486 19.0342L38.6974 18.8402ZM38.6974 15.3787V15.1787H38.4974V15.3787H38.6974ZM40.5346 15.3787V15.5787H40.7346V15.3787H40.5346ZM40.5346 13.3018H40.7346V13.1018H40.5346V13.3018ZM38.6974 13.3018L38.538 13.4227L38.598 13.5018H38.6974V13.3018ZM31.3484 3.60967L31.5078 3.48883L31.3484 3.27865L31.189 3.48883L31.3484 3.60967ZM23.9994 13.3018V13.5018H24.0987L24.1588 13.4227L23.9994 13.3018ZM22.1622 13.3018V13.1018H21.9622V13.3018H22.1622ZM22.1622 15.3787H21.9622V15.5787H22.1622V15.3787ZM23.9994 15.3787H24.1994V15.1787H23.9994V15.3787ZM37.7785 14.6864H37.9785V14.4864H37.7785V14.6864ZM28.5923 14.6864V14.4864H28.3923V14.6864H28.5923ZM37.7785 33.3784H37.5785V33.5784H37.7785V33.3784ZM39.6158 33.3784H39.8158V33.1784H39.6158V33.3784ZM39.6158 35.4553H39.4158V35.6553H39.6158V35.4553ZM41.453 35.4553H41.653V35.2553H41.453V35.4553ZM41.453 37.5322H41.253V37.7322H41.453V37.5322ZM43.2903 37.5322H43.4903V37.3322H43.2903V37.5322ZM43.2903 38.9168V39.1168H43.4903V38.9168H43.2903ZM16.6502 38.9168H16.4502V39.1168H16.6502V38.9168ZM16.6502 26.4555L16.5797 26.2683L16.4502 26.3171V26.4555H16.6502ZM18.4874 25.7632L18.558 25.576L18.4874 25.5495L18.4169 25.576L18.4874 25.7632ZM20.3247 26.4555H20.5247V26.3171L20.3952 26.2683L20.3247 26.4555ZM20.3247 29.917H20.1247V30.117H20.3247V29.917ZM28.5923 29.917V30.117H28.7923V29.917H28.5923ZM47.8837 19.5326H48.0837V19.3326H47.8837V19.5326ZM47.8837 38.9169V39.1169H48.0837V38.9169H47.8837ZM44.2092 19.5326V19.3326H44.0092V19.5326H44.2092ZM44.2092 38.9169H44.0092V39.1169H44.2092V38.9169ZM16.7021 20.3191L24.0514 18.341L23.9474 17.9548L16.5981 19.9328L16.7021 20.3191ZM16.4501 15.3787V20.126H16.8501V15.3787H16.4501ZM14.7423 14.8735L16.5796 15.5658L16.7206 15.1915L14.8834 14.4992L14.7423 14.8735ZM13.0461 15.5658L14.8834 14.8735L14.7423 14.4992L12.9051 15.1915L13.0461 15.5658ZM13.1756 20.9171V15.3787H12.7756V20.9171H13.1756ZM13.7109 20.7171H12.9756V21.1171H13.7109V20.7171ZM11.1907 21.8025L13.7629 21.1102L13.6589 20.7239L11.0867 21.4162L11.1907 21.8025ZM11.3387 43.7628V21.6094H10.9387V43.7628H11.3387ZM30.0555 41.8379L11.1205 43.5637L11.1568 43.962L30.0918 42.2363L30.0555 41.8379ZM49.7384 43.5636L30.0912 41.8379L30.0562 42.2363L49.7034 43.9621L49.7384 43.5636ZM49.5209 18.8402V43.7628H49.9209V18.8402H49.5209ZM47.8132 18.3351L49.6503 19.0273L49.7914 18.653L47.9542 17.9608L47.8132 18.3351ZM47.6837 15.3787V18.1479H48.0837V15.3787H47.6837ZM45.9759 14.8736L47.8132 15.5659L47.9542 15.1916L46.117 14.4993L45.9759 14.8736ZM44.2797 15.5659L46.117 14.8736L45.9759 14.4993L44.1387 15.1916L44.2797 15.5659ZM44.4092 18.1479V15.3787H44.0092V18.1479H44.4092ZM44.2091 18.3479H44.2092V17.9479H44.2091V18.3479ZM41.543 19.7112L44.2989 18.3266L44.1193 17.9692L41.3635 19.3538L41.543 19.7112ZM38.6486 19.0342L41.4045 19.7265L41.502 19.3385L38.7461 18.6462L38.6486 19.0342ZM38.4974 15.3787V18.8402H38.8974V15.3787H38.4974ZM40.5346 15.1787H38.6974V15.5787H40.5346V15.1787ZM40.3346 13.3018V15.3787H40.7346V13.3018H40.3346ZM38.6974 13.5018H40.5346V13.1018H38.6974V13.5018ZM31.189 3.73051L38.538 13.4227L38.8567 13.181L31.5078 3.48883L31.189 3.73051ZM24.1588 13.4227L31.5078 3.73051L31.189 3.48883L23.84 13.181L24.1588 13.4227ZM22.1622 13.5018H23.9994V13.1018H22.1622V13.5018ZM22.3622 15.3787V13.3018H21.9622V15.3787H22.3622ZM23.9994 15.1787H22.1622V15.5787H23.9994V15.1787ZM24.1994 18.1479V15.3787H23.7994V18.1479H24.1994ZM37.7785 14.4864H28.5923V14.8864H37.7785V14.4864ZM37.9785 33.3784V14.6864H37.5785V33.3784H37.9785ZM39.6158 33.1784H37.7785V33.5784H39.6158V33.1784ZM39.8158 35.4553V33.3784H39.4158V35.4553H39.8158ZM41.453 35.2553H39.6158V35.6553H41.453V35.2553ZM41.653 37.5322V35.4553H41.253V37.5322H41.653ZM43.2903 37.3322H41.453V37.7322H43.2903V37.3322ZM43.4903 38.9168V37.5322H43.0903V38.9168H43.4903ZM16.6502 39.1168H43.2903V38.7168H16.6502V39.1168ZM16.4502 26.4555V38.9168H16.8502V26.4555H16.4502ZM18.4169 25.576L16.5797 26.2683L16.7207 26.6426L18.558 25.9503L18.4169 25.576ZM20.3952 26.2683L18.558 25.576L18.4169 25.9503L20.2542 26.6426L20.3952 26.2683ZM20.5247 29.917V26.4555H20.1247V29.917H20.5247ZM28.5923 29.717H20.3247V30.117H28.5923V29.717ZM28.3923 14.6864V29.917H28.7923V14.6864H28.3923ZM47.6837 19.5326V38.9169H48.0837V19.5326H47.6837ZM44.2092 19.7326H47.8837V19.3326H44.2092V19.7326ZM44.4092 38.9169V19.5326H44.0092V38.9169H44.4092ZM47.8837 38.7169H44.2092V39.1169H47.8837V38.7169ZM31.5484 3.60967V0.148193H31.1484V3.60967H31.5484ZM15.0128 14.6864V11.2249H14.6128V14.6864H15.0128ZM46.2464 14.6864V11.2249H45.8464V14.6864H46.2464ZM18.6874 25.7632V23.6863H18.2874V25.7632H18.6874Z" fill="#262B31"/>
<path fill-rule="evenodd" clip-rule="evenodd" d="M7.2733 36.8528C7.25981 36.8472 7.25293 36.8442 7.25293 36.8442V36.8574C6.61751 36.9995 6.06239 37.1318 6.06239 37.1318V37.1742C5.50158 37.2168 4.9177 37.2485 4.42368 37.2485C2.92511 37.2485 0.599609 36.518 0.599609 36.518L4.74236 40.4627L0.599609 43.3847C0.599609 43.3847 2.79792 44.0844 4.26435 44.2613C4.80168 44.3261 5.44811 44.3458 6.06239 44.3439V44.344H7.25293V44.8505C7.25293 44.8505 11.7731 46.8583 16.1727 46.2916C18.3564 46.0103 20.3655 45.3641 22.3525 44.7251C25.0095 43.8705 27.6271 43.0286 30.5695 43.0891C33.3197 43.1455 35.6276 43.9278 37.98 44.7251C39.8362 45.3543 41.7201 45.9928 43.8709 46.2916C48.1448 46.8853 52.9472 44.8505 52.9472 44.8505V44.344H54.1366V44.3439C54.751 44.3458 55.3975 44.3262 55.9349 44.2613C57.4013 44.0844 59.5996 43.3847 59.5996 43.3847L55.4569 40.4627L59.5996 36.5181C59.5996 36.5181 57.2741 37.2486 55.7756 37.2486C55.2815 37.2486 54.6975 37.2168 54.1366 37.1742V37.1318C54.1366 37.1318 53.5822 36.9997 52.9472 36.8577V36.8442C52.9472 36.8442 52.9399 36.8472 52.9258 36.8529C52.3287 36.7195 51.6655 36.5785 51.3271 36.5308C50.7121 36.4439 49.7663 36.8313 49.7663 36.8313V37.8244C48.0674 38.2241 45.9109 38.5393 43.8709 38.2853C41.7471 38.0209 39.8507 37.4465 37.9779 36.8793C35.6082 36.1615 33.2763 35.4552 30.5695 35.403C27.6688 35.3471 25.0257 36.1086 22.3512 36.8791C20.3497 37.4557 18.3305 38.0374 16.1727 38.2853C14.1286 38.5201 12.0616 38.227 10.4328 37.8452V36.8312C10.4328 36.8312 9.48695 36.4439 8.87191 36.5307C8.53352 36.5785 7.87037 36.7194 7.2733 36.8528Z" fill="white"/>
<path d="M10.5805 37.0794V44.0242H6.60642V37.3845C6.66111 37.3719 6.73199 37.3556 6.81542 37.3366C7.02004 37.29 7.30001 37.2269 7.60149 37.1608C8.20733 37.028 8.8911 36.8852 9.22924 36.8385C9.49751 36.8015 9.85444 36.8658 10.1594 36.9476C10.3088 36.9877 10.4401 37.0303 10.534 37.063C10.5507 37.0688 10.5663 37.0743 10.5805 37.0794Z" fill="white" stroke="#0C1617" stroke-width="0.322222"/>
<path d="M1.47953 43.2167C1.46676 43.213 1.45429 43.2093 1.44212 43.2057L5.23819 40.5891L5.40341 40.4752L5.2565 40.3385L1.67098 37.002C1.87094 37.0549 2.1073 37.1148 2.36497 37.1746C3.12247 37.3505 4.07738 37.5297 4.83348 37.5297C5.57789 37.5297 6.52386 37.4589 7.28045 37.3886C7.65944 37.3534 7.99221 37.3182 8.23027 37.2918C8.30805 37.2832 8.37573 37.2755 8.43163 37.2691V43.9553C8.36741 43.9594 8.28412 43.9645 8.18506 43.9701C7.93752 43.984 7.59171 44.0007 7.1988 44.0118C6.41075 44.0341 5.44154 44.0338 4.69571 43.9458C3.98663 43.8622 3.09497 43.6541 2.37588 43.4652C2.01735 43.371 1.7036 43.282 1.47953 43.2167Z" fill="white" stroke="#0C1617" stroke-width="0.322222"/>
<path d="M49.5679 37.0795V44.0242H53.542V37.3845C53.4873 37.3719 53.4164 37.3557 53.333 37.3367C53.1284 37.2901 52.8484 37.2269 52.5469 37.1609C51.9411 37.028 51.2573 36.8853 50.9192 36.8386C50.6509 36.8016 50.294 36.8659 49.989 36.9477C49.8397 36.9877 49.7084 37.0304 49.6145 37.063C49.5977 37.0689 49.5822 37.0744 49.5679 37.0795Z" fill="white" stroke="#0C1617" stroke-width="0.322222"/>
<path d="M58.6689 43.2167C58.6817 43.213 58.6941 43.2093 58.7063 43.2057L54.9103 40.5891L54.745 40.4752L54.8919 40.3385L58.4775 37.002C58.2775 37.0549 58.0411 37.1148 57.7835 37.1746C57.026 37.3505 56.0711 37.5297 55.315 37.5297C54.5705 37.5297 53.6246 37.4589 52.868 37.3886C52.489 37.3534 52.1562 37.3182 51.9182 37.2918C51.8404 37.2832 51.7727 37.2755 51.7168 37.2691V43.9553C51.781 43.9594 51.8643 43.9645 51.9634 43.9701C52.2109 43.984 52.5567 44.0007 52.9496 44.0118C53.7377 44.0341 54.7069 44.0338 55.4527 43.9458C56.1618 43.8622 57.0535 43.6541 57.7726 43.4652C58.1311 43.371 58.4448 43.282 58.6689 43.2167Z" fill="white" stroke="#0C1617" stroke-width="0.322222"/>
<path d="M7.77635 37.2174C7.9069 37.2677 8.09177 37.3365 8.32334 37.4169C8.81073 37.586 9.5055 37.8062 10.3365 38.011C11.9964 38.4202 14.2094 38.7707 16.4018 38.5246C18.5372 38.2849 20.5361 37.722 22.5033 37.168C22.8335 37.0751 23.1629 36.9823 23.4918 36.8914C25.7855 36.2574 28.0656 35.71 30.5336 35.7565C32.8926 35.801 34.9617 36.3439 37.0421 36.9525C37.2855 37.0237 37.5291 37.0958 37.7733 37.1681C39.6134 37.7128 41.491 38.2687 43.5931 38.5244C45.7251 38.7838 47.9772 38.433 49.6898 38.0209C50.5475 37.8145 51.2727 37.5921 51.7839 37.4211C52.0356 37.3369 52.2355 37.2651 52.3739 37.2139V44.5626C52.3444 44.5742 52.3085 44.5881 52.2666 44.604C52.1308 44.6558 51.9317 44.7293 51.6794 44.8158C51.1748 44.989 50.4581 45.214 49.611 45.4214C47.914 45.8367 45.7061 46.1778 43.6343 45.8966C41.5357 45.6117 39.6983 45.0031 37.8726 44.3985C37.6287 44.3177 37.3849 44.237 37.1408 44.1571C35.0734 43.4806 32.9837 42.8675 30.5399 42.8184C27.9845 42.7672 25.6796 43.3854 23.3983 44.089C23.068 44.1909 22.7383 44.2945 22.4084 44.3982C20.4546 45.0122 18.4948 45.6281 16.3637 45.8964C14.229 46.1651 12.0587 45.8236 10.4168 45.4118C9.59699 45.2062 8.9114 44.9838 8.43115 44.8128C8.19107 44.7274 8.00244 44.6548 7.87415 44.6038C7.83618 44.5887 7.8035 44.5755 7.77635 44.5644V37.2174Z" fill="white" stroke="#0C1617" stroke-width="0.322222"/>
<path d="M7.91602 38.856L12.2123 39.93" stroke="#262B31" stroke-width="0.322222"/>
<path d="M7.91602 39.93L12.2123 41.0041" stroke="#262B31" stroke-width="0.322222"/>
<path d="M7.91602 41.0041L12.2123 42.0782" stroke="#262B31" stroke-width="0.322222"/>
<path d="M7.91602 42.0782L12.2123 43.1523" stroke="#262B31" stroke-width="0.322222"/>
<path d="M7.91602 43.1522L12.2123 44.2263" stroke="#262B31" stroke-width="0.322222"/>
<path d="M48.1953 44.2263L52.4916 43.1522" stroke="#262B31" stroke-width="0.322222"/>
<path d="M48.1953 43.1522L52.4916 42.0781" stroke="#262B31" stroke-width="0.322222"/>
<path d="M48.1953 42.0781L52.4916 41.0041" stroke="#262B31" stroke-width="0.322222"/>
<path d="M48.1953 41.004L52.4916 39.9299" stroke="#262B31" stroke-width="0.322222"/>
<path d="M48.1953 39.9299L52.4916 38.8559" stroke="#262B31" stroke-width="0.322222"/>
<path d="M11.825 52V47.707H12.4239V49.562H13.5263V47.707H14.1252V52H13.5263V49.9913H12.4239V52H11.825ZM15.946 52.0477C15.6563 52.0477 15.4248 51.9912 15.2517 51.8781C15.0786 51.765 14.9549 51.6043 14.8807 51.3958C14.8065 51.1838 14.7694 50.9365 14.7694 50.6538V49.0267C14.7694 48.744 14.8065 48.502 14.8807 48.3006C14.9584 48.0957 15.0821 47.9402 15.2517 47.8342C15.4248 47.7247 15.6563 47.6699 15.946 47.6699C16.2357 47.6699 16.4654 47.7247 16.635 47.8342C16.8046 47.9437 16.9265 48.0992 17.0007 48.3006C17.0784 48.502 17.1173 48.744 17.1173 49.0267V50.6591C17.1173 50.9382 17.0784 51.182 17.0007 51.3905C16.9265 51.599 16.8046 51.7615 16.635 51.8781C16.4654 51.9912 16.2357 52.0477 15.946 52.0477ZM15.946 51.576C16.105 51.576 16.2251 51.5442 16.3064 51.4806C16.3877 51.4135 16.4424 51.3216 16.4707 51.205C16.499 51.0849 16.5131 50.9453 16.5131 50.7863V48.9048C16.5131 48.7458 16.499 48.6098 16.4707 48.4967C16.4424 48.3801 16.3877 48.2918 16.3064 48.2317C16.2251 48.1681 16.105 48.1363 15.946 48.1363C15.787 48.1363 15.6651 48.1681 15.5803 48.2317C15.499 48.2918 15.4443 48.3801 15.416 48.4967C15.3877 48.6098 15.3736 48.7458 15.3736 48.9048V50.7863C15.3736 50.9453 15.3877 51.0849 15.416 51.205C15.4443 51.3216 15.499 51.4135 15.5803 51.4806C15.6651 51.5442 15.787 51.576 15.946 51.576ZM17.7589 52V47.707H18.7447C18.9391 47.707 19.1069 47.7282 19.2482 47.7706C19.3931 47.813 19.5132 47.8784 19.6086 47.9667C19.704 48.055 19.7747 48.1681 19.8206 48.3059C19.8666 48.4402 19.8895 48.5992 19.8895 48.7829C19.8895 48.9596 19.8666 49.1133 19.8206 49.244C19.7782 49.3712 19.7111 49.4719 19.6192 49.5461C19.5309 49.6203 19.4161 49.668 19.2747 49.6892C19.4479 49.7281 19.5874 49.7952 19.6934 49.8906C19.7994 49.9825 19.8772 50.1026 19.9266 50.251C19.9796 50.3959 20.0061 50.5708 20.0061 50.7757C20.0061 50.9594 19.9849 51.1273 19.9425 51.2792C19.9001 51.4311 19.833 51.5601 19.7411 51.6661C19.6528 51.7721 19.538 51.8551 19.3966 51.9152C19.2588 51.9717 19.0945 52 18.9037 52H17.7589ZM18.3578 51.5707H18.7606C19.0292 51.5707 19.2076 51.5089 19.2959 51.3852C19.3878 51.258 19.4337 51.0548 19.4337 50.7757C19.4337 50.5955 19.409 50.4453 19.3595 50.3252C19.3136 50.2015 19.2376 50.1097 19.1316 50.0496C19.0292 49.986 18.8896 49.9542 18.7129 49.9542H18.3578V51.5707ZM18.3578 49.4984H18.7129C18.8825 49.4984 19.015 49.4754 19.1104 49.4295C19.2058 49.38 19.273 49.3023 19.3118 49.1963C19.3507 49.0903 19.3701 48.9525 19.3701 48.7829C19.3701 48.585 19.3401 48.4419 19.28 48.3536C19.22 48.2653 19.1263 48.2105 18.9991 48.1893C18.8719 48.1646 18.7059 48.1522 18.5009 48.1522H18.3578V49.4984ZM21.6884 52.0477C21.3987 52.0477 21.1673 51.9912 20.9941 51.8781C20.821 51.765 20.6973 51.6043 20.6231 51.3958C20.5489 51.1838 20.5118 50.9365 20.5118 50.6538V49.0267C20.5118 48.744 20.5489 48.502 20.6231 48.3006C20.7009 48.0957 20.8245 47.9402 20.9941 47.8342C21.1673 47.7247 21.3987 47.6699 21.6884 47.6699C21.9782 47.6699 22.2078 47.7247 22.3774 47.8342C22.547 47.9437 22.6689 48.0992 22.7431 48.3006C22.8209 48.502 22.8597 48.744 22.8597 49.0267V50.6591C22.8597 50.9382 22.8209 51.182 22.7431 51.3905C22.6689 51.599 22.547 51.7615 22.3774 51.8781C22.2078 51.9912 21.9782 52.0477 21.6884 52.0477ZM21.6884 51.576C21.8474 51.576 21.9676 51.5442 22.0488 51.4806C22.1301 51.4135 22.1849 51.3216 22.2131 51.205C22.2414 51.0849 22.2555 50.9453 22.2555 50.7863V48.9048C22.2555 48.7458 22.2414 48.6098 22.2131 48.4967C22.1849 48.3801 22.1301 48.2918 22.0488 48.2317C21.9676 48.1681 21.8474 48.1363 21.6884 48.1363C21.5294 48.1363 21.4075 48.1681 21.3227 48.2317C21.2415 48.2918 21.1867 48.3801 21.1584 48.4967C21.1302 48.6098 21.116 48.7458 21.116 48.9048V50.7863C21.116 50.9453 21.1302 51.0849 21.1584 51.205C21.1867 51.3216 21.2415 51.4135 21.3227 51.4806C21.4075 51.5442 21.5294 51.576 21.6884 51.576ZM24.5773 52.0477C24.2734 52.0477 24.0367 51.9841 23.867 51.8569C23.701 51.7297 23.5844 51.5583 23.5172 51.3428C23.4536 51.1273 23.4218 50.887 23.4218 50.622V49.1062C23.4218 48.8165 23.4536 48.5638 23.5172 48.3483C23.5844 48.1328 23.701 47.9667 23.867 47.8501C24.0367 47.73 24.2734 47.6699 24.5773 47.6699C24.8458 47.6699 25.0578 47.7194 25.2133 47.8183C25.3723 47.9172 25.4853 48.0586 25.5525 48.2423C25.6231 48.426 25.6585 48.6469 25.6585 48.9048V49.244H25.0914V48.9419C25.0914 48.7829 25.0825 48.6433 25.0649 48.5232C25.0507 48.3995 25.0083 48.3041 24.9377 48.237C24.867 48.1699 24.7486 48.1363 24.5826 48.1363C24.413 48.1363 24.2893 48.1734 24.2116 48.2476C24.1338 48.3183 24.0826 48.4207 24.0579 48.555C24.0367 48.6857 24.026 48.8394 24.026 49.0161V50.7174C24.026 50.9329 24.0437 51.1043 24.0791 51.2315C24.1144 51.3552 24.1727 51.4435 24.254 51.4965C24.3352 51.5495 24.4448 51.576 24.5826 51.576C24.7451 51.576 24.8617 51.5407 24.9324 51.47C25.003 51.3958 25.0472 51.2951 25.0649 51.1679C25.0825 51.0407 25.0914 50.8923 25.0914 50.7227V50.4047H25.6585V50.7227C25.6585 50.9842 25.6267 51.2156 25.5631 51.417C25.4995 51.6149 25.3899 51.7703 25.2345 51.8834C25.079 51.9929 24.8599 52.0477 24.5773 52.0477ZM26.282 52V47.707H26.812V50.6803L28.0681 47.707H28.4974V52H27.9727V48.979L26.7272 52H26.282ZM29.2231 52V47.707H31.0675V48.1416H29.822V49.4931H29.9545C30.2654 49.4931 30.5216 49.5302 30.723 49.6044C30.9279 49.6751 31.0798 49.8005 31.1788 49.9807C31.2812 50.1609 31.3325 50.4153 31.3325 50.7439C31.3325 50.9665 31.306 51.1573 31.253 51.3163C31.2 51.4718 31.1169 51.6007 31.0039 51.7032C30.8943 51.8057 30.7548 51.8816 30.5852 51.9311C30.4191 51.977 30.2195 52 29.9863 52H29.2231ZM29.822 51.5707H29.9916C30.1682 51.5707 30.3131 51.5513 30.4262 51.5124C30.5428 51.47 30.6276 51.3887 30.6806 51.2686C30.7371 51.1485 30.7654 50.9718 30.7654 50.7386C30.7654 50.4453 30.7088 50.2369 30.5958 50.1132C30.4862 49.9895 30.2795 49.9277 29.9757 49.9277H29.822V51.5707ZM31.895 52V47.707H32.425V50.6803L33.6811 47.707H34.1104V52H33.5857V48.979L32.3402 52H31.895ZM34.8361 52V47.707H35.9014C36.1593 47.707 36.3643 47.7547 36.5162 47.8501C36.6717 47.942 36.7847 48.0762 36.8554 48.2529C36.9261 48.4296 36.9614 48.6433 36.9614 48.8942C36.9614 49.1203 36.9208 49.3164 36.8395 49.4825C36.7618 49.6486 36.6452 49.7775 36.4897 49.8694C36.3342 49.9577 36.1399 50.0019 35.9067 50.0019H35.435V52H34.8361ZM35.435 49.5726H35.7106C35.8837 49.5726 36.0198 49.5532 36.1187 49.5143C36.2176 49.4754 36.2883 49.4083 36.3307 49.3129C36.3731 49.214 36.3943 49.0762 36.3943 48.8995C36.3943 48.6946 36.3784 48.5373 36.3466 48.4278C36.3183 48.3183 36.2565 48.2423 36.1611 48.1999C36.0657 48.1575 35.9173 48.1363 35.7159 48.1363H35.435V49.5726ZM38.5115 52.0477C38.2076 52.0477 37.9709 51.9841 37.8013 51.8569C37.6352 51.7297 37.5186 51.5583 37.4515 51.3428C37.3879 51.1273 37.3561 50.887 37.3561 50.622V49.1062C37.3561 48.8165 37.3879 48.5638 37.4515 48.3483C37.5186 48.1328 37.6352 47.9667 37.8013 47.8501C37.9709 47.73 38.2076 47.6699 38.5115 47.6699C38.78 47.6699 38.992 47.7194 39.1475 47.8183C39.3065 47.9172 39.4196 48.0586 39.4867 48.2423C39.5574 48.426 39.5927 48.6469 39.5927 48.9048V49.244H39.0256V48.9419C39.0256 48.7829 39.0168 48.6433 38.9991 48.5232C38.985 48.3995 38.9426 48.3041 38.8719 48.237C38.8012 48.1699 38.6829 48.1363 38.5168 48.1363C38.3472 48.1363 38.2235 48.1734 38.1458 48.2476C38.0681 48.3183 38.0168 48.4207 37.9921 48.555C37.9709 48.6857 37.9603 48.8394 37.9603 49.0161V50.7174C37.9603 50.9329 37.978 51.1043 38.0133 51.2315C38.0486 51.3552 38.1069 51.4435 38.1882 51.4965C38.2695 51.5495 38.379 51.576 38.5168 51.576C38.6793 51.576 38.7959 51.5407 38.8666 51.47C38.9373 51.3958 38.9814 51.2951 38.9991 51.1679C39.0168 51.0407 39.0256 50.8923 39.0256 50.7227V50.4047H39.5927V50.7227C39.5927 50.9842 39.5609 51.2156 39.4973 51.417C39.4337 51.6149 39.3242 51.7703 39.1687 51.8834C39.0132 51.9929 38.7942 52.0477 38.5115 52.0477ZM40.2162 52V47.707H40.8151V49.615H41.0377L41.8062 47.707H42.4051L41.5571 49.7475L42.5111 52H41.9122L41.043 49.9065H40.8151V52H40.2162ZM42.9606 52V47.707H43.4906V50.6803L44.7467 47.707H45.176V52H44.6513V48.979L43.4058 52H42.9606ZM45.9017 52V47.707H46.4317V50.6803L47.6878 47.707H48.1171V52H47.5924V48.979L46.3469 52H45.9017ZM47.0624 47.3731C46.808 47.3731 46.6278 47.3042 46.5218 47.1664C46.4194 47.0286 46.3681 46.8572 46.3681 46.6523H46.6967C46.7003 46.7795 46.7285 46.8784 46.7815 46.9491C46.8381 47.0162 46.9317 47.0498 47.0624 47.0498C47.1967 47.0498 47.2903 47.0145 47.3433 46.9438C47.3999 46.8731 47.4281 46.776 47.4281 46.6523H47.762C47.762 46.8572 47.709 47.0286 47.603 47.1664C47.5006 47.3042 47.3204 47.3731 47.0624 47.3731ZM2.43499 58V53.707H3.03389V55.615H3.25649L4.02499 53.707H4.62389L3.77589 55.7475L4.72989 58H4.13099L3.26179 55.9065H3.03389V58H2.43499ZM4.9462 58L5.8578 53.707H6.4355L7.3524 58H6.7853L6.5892 56.9188H5.7147L5.508 58H4.9462ZM5.7942 56.4895H6.5097L6.1493 54.555L5.7942 56.4895ZM7.83039 58L7.90989 53.707H8.49819L9.25609 57.1891L10.0193 53.707H10.6023L10.6818 58H10.1995L10.1518 54.8836L9.42569 58H9.08649L8.36569 54.8836L8.31799 58H7.83039ZM11.3928 58V53.707H11.9917V55.562H13.0941V53.707H13.693V58H13.0941V55.9913H11.9917V58H11.3928ZM14.4167 58V53.707H16.0809V54.1522H15.0156V55.5726H15.8795V55.9966H15.0156V57.5707H16.0915V58H14.4167ZM17.7251 58.0477C17.4354 58.0477 17.204 57.9912 17.0308 57.8781C16.8577 57.765 16.734 57.6043 16.6598 57.3958C16.5856 57.1838 16.5485 56.9365 16.5485 56.6538V55.0267C16.5485 54.744 16.5856 54.502 16.6598 54.3006C16.7376 54.0957 16.8612 53.9402 17.0308 53.8342C17.204 53.7247 17.4354 53.6699 17.7251 53.6699C18.0149 53.6699 18.2445 53.7247 18.4141 53.8342C18.5837 53.9437 18.7056 54.0992 18.7798 54.3006C18.8576 54.502 18.8964 54.744 18.8964 55.0267V56.6591C18.8964 56.9382 18.8576 57.182 18.7798 57.3905C18.7056 57.599 18.5837 57.7615 18.4141 57.8781C18.2445 57.9912 18.0149 58.0477 17.7251 58.0477ZM17.7251 57.576C17.8841 57.576 18.0043 57.5442 18.0855 57.4806C18.1668 57.4135 18.2216 57.3216 18.2498 57.205C18.2781 57.0849 18.2922 56.9453 18.2922 56.7863V54.9048C18.2922 54.7458 18.2781 54.6098 18.2498 54.4967C18.2216 54.3801 18.1668 54.2918 18.0855 54.2317C18.0043 54.1681 17.8841 54.1363 17.7251 54.1363C17.5661 54.1363 17.4442 54.1681 17.3594 54.2317C17.2782 54.2918 17.2234 54.3801 17.1951 54.4967C17.1669 54.6098 17.1527 54.7458 17.1527 54.9048V56.7863C17.1527 56.9453 17.1669 57.0849 17.1951 57.205C17.2234 57.3216 17.2782 57.4135 17.3594 57.4806C17.4442 57.5442 17.5661 57.576 17.7251 57.576ZM19.538 58V53.707H21.3824V54.1416H20.1369V55.4931H20.2694C20.5804 55.4931 20.8365 55.5302 21.0379 55.6044C21.2429 55.6751 21.3948 55.8005 21.4937 55.9807C21.5962 56.1609 21.6474 56.4153 21.6474 56.7439C21.6474 56.9665 21.6209 57.1573 21.5679 57.3163C21.5149 57.4718 21.4319 57.6007 21.3188 57.7032C21.2093 57.8057 21.0697 57.8816 20.9001 57.9311C20.7341 57.977 20.5344 58 20.3012 58H19.538ZM20.1369 57.5707H20.3065C20.4832 57.5707 20.6281 57.5513 20.7411 57.5124C20.8577 57.47 20.9425 57.3887 20.9955 57.2686C21.0521 57.1485 21.0803 56.9718 21.0803 56.7386C21.0803 56.4453 21.0238 56.2369 20.9107 56.1132C20.8012 55.9895 20.5945 55.9277 20.2906 55.9277H20.1369V57.5707ZM22.21 58V53.707H23.2753C23.5332 53.707 23.7382 53.7547 23.8901 53.8501C24.0456 53.942 24.1586 54.0762 24.2293 54.2529C24.3 54.4296 24.3353 54.6433 24.3353 54.8942C24.3353 55.1203 24.2947 55.3164 24.2134 55.4825C24.1357 55.6486 24.0191 55.7775 23.8636 55.8694C23.7081 55.9577 23.5138 56.0019 23.2806 56.0019H22.8089V58H22.21ZM22.8089 55.5726H23.0845C23.2576 55.5726 23.3937 55.5532 23.4926 55.5143C23.5915 55.4754 23.6622 55.4083 23.7046 55.3129C23.747 55.214 23.7682 55.0762 23.7682 54.8995C23.7682 54.6946 23.7523 54.5373 23.7205 54.4278C23.6922 54.3183 23.6304 54.2423 23.535 54.1999C23.4396 54.1575 23.2912 54.1363 23.0898 54.1363H22.8089V55.5726ZM24.5142 58L25.4258 53.707H26.0035L26.9204 58H26.3533L26.1572 56.9188H25.2827L25.076 58H24.5142ZM25.3622 56.4895H26.0777L25.7173 54.555L25.3622 56.4895ZM27.409 58V53.707H29.2534V54.1416H28.0079V55.4931H28.1404C28.4513 55.4931 28.7075 55.5302 28.9089 55.6044C29.1138 55.6751 29.2657 55.8005 29.3647 55.9807C29.4671 56.1609 29.5184 56.4153 29.5184 56.7439C29.5184 56.9665 29.4919 57.1573 29.4389 57.3163C29.3859 57.4718 29.3028 57.6007 29.1898 57.7032C29.0802 57.8057 28.9407 57.8816 28.7711 57.9311C28.605 57.977 28.4054 58 28.1722 58H27.409ZM28.0079 57.5707H28.1775C28.3541 57.5707 28.499 57.5513 28.6121 57.5124C28.7287 57.47 28.8135 57.3887 28.8665 57.2686C28.923 57.1485 28.9513 56.9718 28.9513 56.7386C28.9513 56.4453 28.8947 56.2369 28.7817 56.1132C28.6721 55.9895 28.4654 55.9277 28.1616 55.9277H28.0079V57.5707ZM29.8477 58L30.7593 53.707H31.337L32.2539 58H31.6868L31.4907 56.9188H30.6162L30.4095 58H29.8477ZM30.6957 56.4895H31.4112L31.0508 54.555L30.6957 56.4895ZM33.0745 58V54.1522H32.3484V53.707H34.3783V54.1522H33.6734V58H33.0745ZM34.8451 58V53.707H35.444V55.4931H35.6136C35.9245 55.4931 36.1807 55.5302 36.3821 55.6044C36.5835 55.6751 36.7337 55.8005 36.8326 55.9807C36.9351 56.1609 36.9863 56.4153 36.9863 56.7439C36.9863 56.9665 36.9598 57.1573 36.9068 57.3163C36.8538 57.4718 36.7708 57.6007 36.6577 57.7032C36.5482 57.8057 36.4086 57.8816 36.239 57.9311C36.0729 57.977 35.8733 58 35.6401 58H34.8451ZM35.444 57.5707H35.6401C35.8203 57.5707 35.9669 57.5513 36.08 57.5124C36.1966 57.47 36.2832 57.3887 36.3397 57.2686C36.3962 57.1485 36.4245 56.9718 36.4245 56.7386C36.4245 56.4453 36.368 56.2369 36.2549 56.1132C36.1418 55.9895 35.9334 55.9277 35.6295 55.9277H35.444V57.5707ZM37.4315 58V53.707H38.0304V58H37.4315ZM38.7541 58V53.707H39.7399C39.9342 53.707 40.102 53.7282 40.2434 53.7706C40.3882 53.813 40.5084 53.8784 40.6038 53.9667C40.6992 54.055 40.7698 54.1681 40.8158 54.3059C40.8617 54.4402 40.8847 54.5992 40.8847 54.7829C40.8847 54.9596 40.8617 55.1133 40.8158 55.244C40.7734 55.3712 40.7062 55.4719 40.6144 55.5461C40.526 55.6203 40.4112 55.668 40.2699 55.6892C40.443 55.7281 40.5826 55.7952 40.6886 55.8906C40.7946 55.9825 40.8723 56.1026 40.9218 56.251C40.9748 56.3959 41.0013 56.5708 41.0013 56.7757C41.0013 56.9594 40.9801 57.1273 40.9377 57.2792C40.8953 57.4311 40.8281 57.5601 40.7363 57.6661C40.6479 57.7721 40.5331 57.8551 40.3918 57.9152C40.254 57.9717 40.0897 58 39.8989 58H38.7541ZM39.353 57.5707H39.7558C40.0243 57.5707 40.2027 57.5089 40.2911 57.3852C40.3829 57.258 40.4289 57.0548 40.4289 56.7757C40.4289 56.5955 40.4041 56.4453 40.3547 56.3252C40.3087 56.2015 40.2328 56.1097 40.1268 56.0496C40.0243 55.986 39.8847 55.9542 39.7081 55.9542H39.353V57.5707ZM39.353 55.4984H39.7081C39.8777 55.4984 40.0102 55.4754 40.1056 55.4295C40.201 55.38 40.2681 55.3023 40.307 55.1963C40.3458 55.0903 40.3653 54.9525 40.3653 54.7829C40.3653 54.585 40.3352 54.4419 40.2752 54.3536C40.2151 54.2653 40.1215 54.2105 39.9943 54.1893C39.8671 54.1646 39.701 54.1522 39.4961 54.1522H39.353V55.4984ZM41.3533 58L42.2649 53.707H42.8426L43.7595 58H43.1924L42.9963 56.9188H42.1218L41.9151 58H41.3533ZM42.2013 56.4895H42.9168L42.5564 54.555L42.2013 56.4895ZM46.384 58.0477C46.1084 58.0477 45.8911 57.9912 45.7321 57.8781C45.5731 57.7615 45.46 57.5972 45.3929 57.3852C45.3293 57.1732 45.2975 56.9259 45.2975 56.6432V56.0337H44.8099V58H44.2481V53.707H44.8099V55.5779H45.2975V55.0426C45.2975 54.7564 45.3293 54.5108 45.3929 54.3059C45.46 54.101 45.5731 53.9437 45.7321 53.8342C45.8911 53.7247 46.1084 53.6699 46.384 53.6699C46.6596 53.6699 46.8751 53.7264 47.0306 53.8395C47.1896 53.949 47.3026 54.1063 47.3698 54.3112C47.4369 54.5161 47.4705 54.7599 47.4705 55.0426V56.6432C47.4705 56.9223 47.4369 57.1679 47.3698 57.3799C47.3026 57.5919 47.1896 57.7562 47.0306 57.8728C46.8751 57.9894 46.6596 58.0477 46.384 58.0477ZM46.384 57.576C46.5359 57.576 46.6507 57.5442 46.7285 57.4806C46.8062 57.4135 46.8592 57.3216 46.8875 57.205C46.9157 57.0849 46.9299 56.9453 46.9299 56.7863V54.9048C46.9299 54.7458 46.9157 54.6098 46.8875 54.4967C46.8592 54.3801 46.8062 54.2918 46.7285 54.2317C46.6507 54.1681 46.5359 54.1363 46.384 54.1363C46.232 54.1363 46.1154 54.1681 46.0342 54.2317C45.9564 54.2918 45.9034 54.3801 45.8752 54.4967C45.8469 54.6098 45.8328 54.7458 45.8328 54.9048V56.7863C45.8328 56.9453 45.8469 57.0849 45.8752 57.205C45.9034 57.3216 45.9564 57.4135 46.0342 57.4806C46.1154 57.5442 46.232 57.576 46.384 57.576ZM51.3646 58.7791L51.3169 58H48.1104V53.707H48.7093V57.5707H49.4831V53.707H50.082V57.5707H50.8187V53.707H51.4229V57.5707H51.831V58.7791H51.3646ZM52.3506 58V53.707H52.8806V56.6803L54.1367 53.707H54.566V58H54.0413V54.979L52.7958 58H52.3506ZM55.2917 58V53.707H55.8217V56.6803L57.0778 53.707H57.5071V58H56.9824V54.979L55.7369 58H55.2917ZM56.4524 53.3731C56.198 53.3731 56.0178 53.3042 55.9118 53.1664C55.8094 53.0286 55.7581 52.8572 55.7581 52.6523H56.0867C56.0903 52.7795 56.1185 52.8784 56.1715 52.9491C56.2281 53.0162 56.3217 53.0498 56.4524 53.0498C56.5867 53.0498 56.6803 53.0145 56.7333 52.9438C56.7899 52.8731 56.8181 52.776 56.8181 52.6523H57.152C57.152 52.8572 57.099 53.0286 56.993 53.1664C56.8906 53.3042 56.7104 53.3731 56.4524 53.3731ZM24.1088 64.0477C23.8756 64.0477 23.6813 64.0035 23.5258 63.9152C23.3704 63.8269 23.2538 63.6997 23.176 63.5336C23.0983 63.3675 23.0594 63.1714 23.0594 62.9453V62.8022H23.6212C23.6212 62.8269 23.6212 62.8534 23.6212 62.8817C23.6212 62.9064 23.623 62.9294 23.6265 62.9506C23.6336 63.1343 23.6689 63.2845 23.7325 63.4011C23.7961 63.5177 23.9216 63.576 24.1088 63.576C24.2466 63.576 24.3509 63.5442 24.4215 63.4806C24.4922 63.4135 24.5399 63.3216 24.5646 63.205C24.5894 63.0849 24.6017 62.9471 24.6017 62.7916C24.6017 62.569 24.5523 62.3835 24.4533 62.2351C24.3544 62.0867 24.1671 62.0037 23.8915 61.986C23.8774 61.9825 23.8597 61.9807 23.8385 61.9807C23.8209 61.9807 23.8014 61.9807 23.7802 61.9807C23.7626 61.9807 23.7449 61.9807 23.7272 61.9807V61.5249C23.7414 61.5249 23.7573 61.5249 23.7749 61.5249C23.7961 61.5249 23.8156 61.5249 23.8332 61.5249C23.8544 61.5214 23.8703 61.5196 23.8809 61.5196C24.153 61.5019 24.3403 61.4313 24.4427 61.3076C24.5487 61.1804 24.6017 61.0037 24.6017 60.7776C24.6017 60.5833 24.5629 60.4278 24.4851 60.3112C24.4109 60.1911 24.2767 60.131 24.0823 60.131C23.8951 60.131 23.7608 60.1911 23.6795 60.3112C23.5983 60.4278 23.5506 60.5815 23.5364 60.7723C23.5364 60.7935 23.5364 60.8165 23.5364 60.8412C23.5364 60.8624 23.5364 60.8854 23.5364 60.9101H22.9693V60.767C22.9693 60.5373 23.0117 60.3412 23.0965 60.1787C23.1813 60.0162 23.305 59.8907 23.4675 59.8024C23.6301 59.7141 23.8279 59.6699 24.0611 59.6699C24.2979 59.6699 24.4975 59.7158 24.66 59.8077C24.8261 59.896 24.9515 60.0232 25.0363 60.1893C25.1247 60.3518 25.1688 60.5479 25.1688 60.7776C25.1688 61.0355 25.1123 61.2458 24.9992 61.4083C24.8897 61.5708 24.7413 61.6786 24.554 61.7316C24.6812 61.774 24.7908 61.8411 24.8826 61.933C24.9745 62.0249 25.0452 62.1432 25.0946 62.2881C25.1441 62.4294 25.1688 62.5973 25.1688 62.7916C25.1688 63.046 25.1335 63.2686 25.0628 63.4594C24.9922 63.6467 24.8791 63.7915 24.7236 63.894C24.5682 63.9965 24.3632 64.0477 24.1088 64.0477ZM25.537 64L26.4486 59.707H27.0263L27.9432 64H27.3761L27.18 62.9188H26.3055L26.0988 64H25.537ZM26.385 62.4895H27.1005L26.7401 60.555L26.385 62.4895ZM28.4318 64V59.707H29.4176C29.6119 59.707 29.7798 59.7282 29.9211 59.7706C30.066 59.813 30.1861 59.8784 30.2815 59.9667C30.3769 60.055 30.4476 60.1681 30.4935 60.3059C30.5394 60.4402 30.5624 60.5992 30.5624 60.7829C30.5624 60.9596 30.5394 61.1133 30.4935 61.244C30.4511 61.3712 30.384 61.4719 30.2921 61.5461C30.2038 61.6203 30.0889 61.668 29.9476 61.6892C30.1207 61.7281 30.2603 61.7952 30.3663 61.8906C30.4723 61.9825 30.55 62.1026 30.5995 62.251C30.6525 62.3959 30.679 62.5708 30.679 62.7757C30.679 62.9594 30.6578 63.1273 30.6154 63.2792C30.573 63.4311 30.5059 63.5601 30.414 63.6661C30.3257 63.7721 30.2108 63.8551 30.0695 63.9152C29.9317 63.9717 29.7674 64 29.5766 64H28.4318ZM29.0307 63.5707H29.4335C29.702 63.5707 29.8805 63.5089 29.9688 63.3852C30.0607 63.258 30.1066 63.0548 30.1066 62.7757C30.1066 62.5955 30.0819 62.4453 30.0324 62.3252C29.9865 62.2015 29.9105 62.1097 29.8045 62.0496C29.702 61.986 29.5625 61.9542 29.3858 61.9542H29.0307V63.5707ZM29.0307 61.4984H29.3858C29.5554 61.4984 29.6879 61.4754 29.7833 61.4295C29.8787 61.38 29.9458 61.3023 29.9847 61.1963C30.0236 61.0903 30.043 60.9525 30.043 60.7829C30.043 60.585 30.013 60.4419 29.9529 60.3536C29.8928 60.2653 29.7992 60.2105 29.672 60.1893C29.5448 60.1646 29.3787 60.1522 29.1738 60.1522H29.0307V61.4984ZM32.3613 64.0477C32.0716 64.0477 31.8401 63.9912 31.667 63.8781C31.4939 63.765 31.3702 63.6043 31.296 63.3958C31.2218 63.1838 31.1847 62.9365 31.1847 62.6538V61.0267C31.1847 60.744 31.2218 60.502 31.296 60.3006C31.3737 60.0957 31.4974 59.9402 31.667 59.8342C31.8401 59.7247 32.0716 59.6699 32.3613 59.6699C32.651 59.6699 32.8807 59.7247 33.0503 59.8342C33.2199 59.9437 33.3418 60.0992 33.416 60.3006C33.4937 60.502 33.5326 60.744 33.5326 61.0267V62.6591C33.5326 62.9382 33.4937 63.182 33.416 63.3905C33.3418 63.599 33.2199 63.7615 33.0503 63.8781C32.8807 63.9912 32.651 64.0477 32.3613 64.0477ZM32.3613 63.576C32.5203 63.576 32.6404 63.5442 32.7217 63.4806C32.803 63.4135 32.8577 63.3216 32.886 63.205C32.9143 63.0849 32.9284 62.9453 32.9284 62.7863V60.9048C32.9284 60.7458 32.9143 60.6098 32.886 60.4967C32.8577 60.3801 32.803 60.2918 32.7217 60.2317C32.6404 60.1681 32.5203 60.1363 32.3613 60.1363C32.2023 60.1363 32.0804 60.1681 31.9956 60.2317C31.9143 60.2918 31.8596 60.3801 31.8313 60.4967C31.803 60.6098 31.7889 60.7458 31.7889 60.9048V62.7863C31.7889 62.9453 31.803 63.0849 31.8313 63.205C31.8596 63.3216 31.9143 63.4135 31.9956 63.4806C32.0804 63.5442 32.2023 63.576 32.3613 63.576ZM33.8986 64.7791V63.5707H34.0947C34.1548 63.5212 34.2131 63.4612 34.2696 63.3905C34.3297 63.3198 34.3845 63.228 34.4339 63.1149C34.4869 62.9983 34.5346 62.8499 34.577 62.6697C34.6194 62.486 34.6565 62.2563 34.6883 61.9807C34.7237 61.7051 34.7502 61.3712 34.7678 60.979L34.8367 59.707H36.6334V63.5707H37.0468V64.7791H36.5857L36.538 64H34.4074L34.3597 64.7791H33.8986ZM34.6512 63.5707H36.0398V60.1522H35.3455L35.3031 61.1221C35.289 61.5037 35.266 61.8252 35.2342 62.0867C35.206 62.3446 35.1706 62.5584 35.1282 62.728C35.0894 62.8941 35.0434 63.0301 34.9904 63.1361C34.941 63.2386 34.8862 63.3216 34.8261 63.3852C34.7696 63.4488 34.7113 63.5106 34.6512 63.5707Z" fill="white"/>
</svg>
