<svg width="22" height="22" viewBox="0 0 22 22" fill="none" xmlns="http://www.w3.org/2000/svg">
<path d="M0 3.66667C0 1.64162 1.64162 0 3.66667 0H5.28844C5.87874 0 6.39752 0.391315 6.55969 0.958899L7.84999 5.47495C8.08561 6.29963 7.73483 7.17942 6.99643 7.61575L6.12406 8.13124C4.89202 8.85926 4.4427 10.4226 5.10017 11.6937C6.25487 13.9261 8.07392 15.7451 10.3063 16.8998C11.5774 17.5573 13.1407 17.108 13.8688 15.8759L14.3843 15.0036C14.8206 14.2652 15.7004 13.9144 16.525 14.15L21.0411 15.4403C21.6087 15.6025 22 16.1213 22 16.7116V18.3333C22 20.3584 20.3584 22 18.3333 22C8.20811 22 0 13.7919 0 3.66667Z" fill="white"/>
</svg>
